<svg width="300" height="90" viewBox="0 0 300 90" fill="none" xmlns="http://www.w3.org/2000/svg">
  <!-- Leaf/Plant Icon -->
  <path d="M540 45C540 69.8528 520.077 90 495.5 90C470.923 90 451 69.8528 451 45C451 20.1472 470.923 0 495.5 0C520.077 0 540 20.1472 540 45Z" fill="#12B784" transform="translate(-400, 0) scale(0.8)"/>
  <path d="M495.5 90C520.077 90 540 69.8528 540 45C540 20.1472 520.077 0 495.5 0" stroke="#12B784" stroke-width="2" transform="translate(-400, 0) scale(0.8)"/>
  
  <!-- Leaf details -->
  <path d="M495.5 45C495.5 57.4264 505.297 67.5 517.5 67.5C529.703 67.5 539.5 57.4264 539.5 45C539.5 32.5736 529.703 22.5 517.5 22.5" stroke="#FFFFFF" stroke-width="2" transform="translate(-400, 0) scale(0.8)"/>
  
  <!-- Text "Grinlif" -->
  <text x="130" y="60" font-family="Arial, sans-serif" font-size="40" font-weight="bold" fill="#333333">Grinlif<tspan font-size="12" dy="-20">™</tspan></text>
</svg>
